<?xml version="1.0" encoding="utf-8"?>
<!-- Generator: Adobe Illustrator 18.0.0, SVG Export Plug-In . SVG Version: 6.00 Build 0)  -->
<!DOCTYPE svg PUBLIC "-//W3C//DTD SVG 1.1//EN" "http://www.w3.org/Graphics/SVG/1.1/DTD/svg11.dtd">
<svg version="1.1" id="Calque_1" xmlns="http://www.w3.org/2000/svg" xmlns:xlink="http://www.w3.org/1999/xlink" x="0px" y="0px"
	 viewBox="0 0 406.1 134.9" enable-background="new 0 0 406.1 134.9" xml:space="preserve">
<g>
	<g>
		<g>
			<g>
				<line fill="none" stroke="#3C3C3B" stroke-width="4" stroke-miterlimit="10" x1="307.5" y1="108.7" x2="6.8" y2="13.6"/>
			</g>
			<g>
				<path fill="#3C3C3B" d="M321,134.9c-0.9-0.9-1.8-1.8-2.7-2.8c-0.4-0.5-0.8-0.9-1.3-1.4l-1.2-1.4c-0.2-0.2-0.3-0.5-0.4-0.8
					c-0.1-0.3-0.3-0.6-0.4-0.8l-0.8-1.6l-1.7-3.3l-6.8-13.1l-0.9-1.8l1.8-0.9l13.2-6.8l3.3-1.7l1.6-0.9c0.3-0.1,0.6-0.3,0.8-0.4
					c0.3-0.2,0.5-0.3,0.8-0.4c1.2-0.3,2.5-0.6,3.7-0.9c1.3-0.3,2.5-0.5,3.8-0.8c-0.9,0.9-1.9,1.8-2.8,2.7c-0.9,0.9-1.9,1.7-2.9,2.5
					c-0.2,0.2-0.5,0.3-0.8,0.4c-0.3,0.1-0.6,0.3-0.8,0.4l-1.6,0.9l-3.3,1.7l-13.2,6.8l0.9-2.7l6.8,13.1l1.7,3.3l0.8,1.6
					c0.1,0.3,0.3,0.5,0.4,0.8c0.2,0.3,0.3,0.5,0.4,0.8l0.4,1.8c0.1,0.6,0.3,1.2,0.4,1.9C320.6,132.3,320.9,133.6,321,134.9z"/>
			</g>
			<g>
				<path fill="#3C3C3B" d="M308.2,130.8c-0.9-0.9-1.8-1.8-2.7-2.8c-0.4-0.5-0.8-0.9-1.3-1.4l-1.2-1.4c-0.2-0.2-0.3-0.5-0.4-0.8
					c-0.1-0.3-0.3-0.6-0.4-0.8l-0.8-1.6l-1.7-3.3l-6.8-13.1l-0.9-1.8l1.8-0.9l13.2-6.8l3.3-1.7l1.6-0.9c0.3-0.1,0.6-0.3,0.8-0.4
					c0.3-0.2,0.5-0.3,0.8-0.4c1.2-0.3,2.5-0.6,3.7-0.9c1.3-0.3,2.5-0.5,3.8-0.8c-0.9,0.9-1.9,1.8-2.8,2.7c-0.9,0.9-1.9,1.7-2.9,2.5
					c-0.2,0.2-0.5,0.3-0.8,0.4c-0.3,0.1-0.6,0.3-0.8,0.4l-1.6,0.9l-3.3,1.7l-13.2,6.8l0.9-2.7l6.8,13.1l1.7,3.3l0.8,1.6
					c0.1,0.3,0.3,0.5,0.4,0.8c0.2,0.3,0.3,0.5,0.4,0.8l0.4,1.8c0.1,0.6,0.3,1.2,0.4,1.9C307.7,128.3,308,129.5,308.2,130.8z"/>
			</g>
			<g>
				<path fill="#3C3C3B" d="M295.3,126.7c-0.9-0.9-1.8-1.8-2.7-2.8c-0.4-0.5-0.8-0.9-1.3-1.4l-1.2-1.4c-0.2-0.2-0.3-0.5-0.4-0.8
					c-0.1-0.3-0.3-0.6-0.4-0.8l-0.8-1.6l-1.7-3.3l-6.8-13.1l-0.9-1.8l1.8-0.9L294,92l3.3-1.7l1.6-0.9c0.3-0.1,0.6-0.3,0.8-0.4
					c0.3-0.2,0.5-0.3,0.8-0.4c1.2-0.3,2.5-0.6,3.7-0.9c1.3-0.3,2.5-0.5,3.8-0.8c-0.9,0.9-1.9,1.8-2.8,2.7c-0.9,0.9-1.9,1.7-2.9,2.5
					c-0.2,0.2-0.5,0.3-0.8,0.4c-0.3,0.1-0.6,0.3-0.8,0.4l-1.6,0.9l-3.3,1.7l-13.2,6.8l0.9-2.7l6.8,13.1l1.7,3.3l0.8,1.6
					c0.1,0.3,0.3,0.5,0.4,0.8c0.2,0.3,0.3,0.5,0.4,0.8l0.4,1.8c0.1,0.6,0.3,1.2,0.4,1.9C294.9,124.2,295.1,125.5,295.3,126.7z"/>
			</g>
			<g>
				<path fill="#3C3C3B" d="M282.5,122.7c-0.9-0.9-1.8-1.8-2.7-2.8c-0.4-0.5-0.8-0.9-1.3-1.4l-1.2-1.4c-0.2-0.2-0.3-0.5-0.4-0.8
					c-0.1-0.3-0.3-0.6-0.4-0.8l-0.8-1.6l-1.7-3.3l-6.8-13.1l-0.9-1.8l1.8-0.9l13.2-6.8l3.3-1.7l1.6-0.9c0.3-0.1,0.6-0.3,0.8-0.4
					c0.3-0.2,0.5-0.3,0.8-0.4c1.2-0.3,2.5-0.6,3.7-0.9c1.3-0.3,2.5-0.5,3.8-0.8c-0.9,0.9-1.9,1.8-2.8,2.7c-0.9,0.9-1.9,1.7-2.9,2.5
					c-0.2,0.2-0.5,0.3-0.8,0.4c-0.3,0.1-0.6,0.3-0.8,0.4l-1.6,0.9l-3.3,1.7l-13.2,6.8l0.9-2.7l6.8,13.1l1.7,3.3l0.8,1.6
					c0.1,0.3,0.3,0.5,0.4,0.8c0.2,0.3,0.3,0.5,0.4,0.8l0.4,1.8c0.1,0.6,0.3,1.2,0.4,1.9C282,120.1,282.3,121.4,282.5,122.7z"/>
			</g>
			<g>
				<path fill="#3C3C3B" d="M20.3,39.8c-2.1-1.7-3.9-3.5-5.6-5.4c-0.8-0.9-1.7-1.9-2.4-2.9c-0.4-0.5-0.8-1-1.2-1.5
					c-0.4-0.5-0.8-1-1.1-1.5c-0.7-1-1.4-2-2.1-3c-0.3-0.5-0.7-1-1-1.5l-1-1.6c-1.3-2.1-2.5-4.2-3.6-6.4L0,11.6l4.4-2.3
					C6.6,8.1,8.9,7,11.1,6c1.1-0.5,2.3-1,3.4-1.4c1.2-0.5,2.3-0.9,3.5-1.3c0.6-0.2,1.2-0.4,1.8-0.6c0.6-0.2,1.2-0.4,1.8-0.6
					c1.2-0.4,2.4-0.7,3.7-1c2.5-0.6,5-1.1,7.7-1.2c-1.7,2.1-3.5,3.9-5.4,5.6c-1,0.8-1.9,1.7-2.9,2.4c-0.5,0.4-1,0.8-1.5,1.2
					c-0.5,0.4-1,0.8-1.5,1.1c-1,0.7-2,1.5-3.1,2.1c-1,0.7-2.1,1.3-3.1,2c-2.1,1.3-4.3,2.5-6.5,3.6l2.1-6.7c1.1,2.2,2.2,4.4,3.2,6.7
					l0.7,1.7c0.2,0.6,0.5,1.1,0.7,1.7c0.5,1.1,0.9,2.3,1.3,3.5c0.2,0.6,0.4,1.2,0.6,1.8c0.2,0.6,0.4,1.2,0.5,1.8
					c0.4,1.2,0.7,2.4,1,3.6C19.7,34.6,20.2,37.1,20.3,39.8z"/>
			</g>
		</g>
	</g>
	<g>
		<g>
			<g>
				<line fill="none" stroke="#3C3C3B" stroke-width="4" stroke-miterlimit="10" x1="98.6" y1="108.7" x2="399.3" y2="13.6"/>
			</g>
			<g>
				<path fill="#3C3C3B" d="M85.1,134.9c0.2-1.3,0.5-2.5,0.7-3.8c0.1-0.6,0.3-1.2,0.4-1.9l0.4-1.8c0.1-0.3,0.3-0.6,0.4-0.8
					c0.2-0.3,0.3-0.5,0.4-0.8l0.8-1.6l1.7-3.3l6.8-13.1l0.9,2.7l-13.2-6.8l-3.3-1.7l-1.6-0.9c-0.3-0.1-0.5-0.3-0.8-0.4
					c-0.3-0.1-0.6-0.2-0.8-0.4c-1-0.8-1.9-1.7-2.9-2.5c-0.9-0.9-1.9-1.7-2.8-2.7c1.3,0.2,2.5,0.5,3.8,0.8c1.2,0.3,2.5,0.6,3.7,0.9
					c0.3,0.1,0.6,0.3,0.8,0.4c0.3,0.2,0.5,0.3,0.8,0.4l1.6,0.9l3.3,1.7l13.2,6.8l1.8,0.9l-0.9,1.8l-6.8,13.1l-1.7,3.3l-0.8,1.6
					c-0.1,0.3-0.3,0.5-0.4,0.8c-0.1,0.3-0.2,0.6-0.4,0.8l-1.2,1.4c-0.4,0.5-0.8,1-1.3,1.4C86.9,133,86,134,85.1,134.9z"/>
			</g>
			<g>
				<path fill="#3C3C3B" d="M97.9,130.8c0.2-1.3,0.5-2.5,0.7-3.8c0.1-0.6,0.3-1.2,0.4-1.9l0.4-1.8c0.1-0.3,0.3-0.6,0.4-0.8
					c0.2-0.3,0.3-0.5,0.4-0.8l0.8-1.6l1.7-3.3l6.8-13.1l0.9,2.7l-13.2-6.8l-3.3-1.7L92.5,97c-0.3-0.1-0.5-0.3-0.8-0.4
					c-0.3-0.1-0.6-0.2-0.8-0.4c-1-0.8-1.9-1.7-2.9-2.5c-0.9-0.9-1.9-1.7-2.8-2.7c1.3,0.2,2.5,0.5,3.8,0.8c1.2,0.3,2.5,0.6,3.7,0.9
					c0.3,0.1,0.6,0.3,0.8,0.4c0.3,0.2,0.5,0.3,0.8,0.4l1.6,0.9l3.3,1.7l13.2,6.8l1.8,0.9l-0.9,1.8l-6.8,13.1l-1.7,3.3l-0.8,1.6
					c-0.1,0.3-0.3,0.5-0.4,0.8c-0.1,0.3-0.2,0.6-0.4,0.8l-1.2,1.4c-0.4,0.5-0.8,1-1.3,1.4C99.7,129,98.9,129.9,97.9,130.8z"/>
			</g>
			<g>
				<path fill="#3C3C3B" d="M110.8,126.7c0.2-1.3,0.5-2.5,0.7-3.8c0.1-0.6,0.3-1.2,0.4-1.9l0.4-1.8c0.1-0.3,0.3-0.6,0.4-0.8
					c0.2-0.3,0.3-0.5,0.4-0.8l0.8-1.6l1.7-3.3l6.8-13.1l0.9,2.7l-13.2-6.8l-3.3-1.7l-1.6-0.9c-0.3-0.1-0.5-0.3-0.8-0.4
					c-0.3-0.1-0.6-0.2-0.8-0.4c-1-0.8-1.9-1.7-2.9-2.5c-0.9-0.9-1.9-1.7-2.8-2.7c1.3,0.2,2.5,0.5,3.8,0.8c1.2,0.3,2.5,0.6,3.7,0.9
					c0.3,0.1,0.6,0.3,0.8,0.4c0.3,0.2,0.5,0.3,0.8,0.4l1.6,0.9l3.3,1.7l13.2,6.8l1.8,0.9l-0.9,1.8l-6.8,13.1l-1.7,3.3l-0.8,1.6
					c-0.1,0.3-0.3,0.5-0.4,0.8c-0.1,0.3-0.2,0.6-0.4,0.8l-1.2,1.4c-0.4,0.5-0.8,1-1.3,1.4C112.6,124.9,111.7,125.8,110.8,126.7z"/>
			</g>
			<g>
				<path fill="#3C3C3B" d="M123.6,122.7c0.2-1.3,0.5-2.5,0.7-3.8c0.1-0.6,0.3-1.2,0.4-1.9l0.4-1.8c0.1-0.3,0.3-0.6,0.4-0.8
					c0.2-0.3,0.3-0.5,0.4-0.8l0.8-1.6l1.7-3.3l6.8-13.1l0.9,2.7l-13.2-6.8l-3.3-1.7l-1.6-0.9c-0.3-0.1-0.5-0.3-0.8-0.4
					c-0.3-0.1-0.6-0.2-0.8-0.4c-1-0.8-1.9-1.7-2.9-2.5c-0.9-0.9-1.9-1.7-2.8-2.7c1.3,0.2,2.5,0.5,3.8,0.8c1.2,0.3,2.5,0.6,3.7,0.9
					c0.3,0.1,0.6,0.3,0.8,0.4c0.3,0.2,0.5,0.3,0.8,0.4l1.6,0.9l3.3,1.7l13.2,6.8l1.8,0.9l-0.9,1.8l-6.8,13.1l-1.7,3.3l-0.8,1.6
					c-0.1,0.3-0.3,0.5-0.4,0.8c-0.1,0.3-0.2,0.6-0.4,0.8l-1.2,1.4c-0.4,0.5-0.8,1-1.3,1.4C125.5,120.8,124.6,121.8,123.6,122.7z"/>
			</g>
			<g>
				<path fill="#3C3C3B" d="M385.8,39.8c0.2-2.7,0.7-5.2,1.2-7.7c0.3-1.2,0.6-2.4,1-3.6c0.2-0.6,0.4-1.2,0.5-1.8
					c0.2-0.6,0.4-1.2,0.6-1.8c0.4-1.2,0.8-2.3,1.3-3.5c0.2-0.6,0.4-1.2,0.7-1.7l0.7-1.7c1-2.3,2-4.5,3.2-6.7l2.1,6.7
					c-2.2-1.1-4.4-2.3-6.5-3.6c-1-0.7-2.1-1.3-3.1-2c-1-0.7-2.1-1.4-3.1-2.1c-0.5-0.4-1-0.7-1.5-1.1c-0.5-0.4-1-0.8-1.5-1.2
					c-1-0.8-2-1.6-2.9-2.4c-1.9-1.7-3.8-3.5-5.4-5.6c2.7,0.2,5.2,0.7,7.7,1.2c1.2,0.3,2.5,0.6,3.7,1c0.6,0.2,1.2,0.4,1.8,0.6
					c0.6,0.2,1.2,0.4,1.8,0.6c1.2,0.4,2.4,0.8,3.5,1.3c1.2,0.4,2.3,0.9,3.4,1.4c2.3,1,4.5,2.1,6.7,3.2l4.4,2.3l-2.3,4.4
					c-1.1,2.2-2.3,4.3-3.6,6.4l-1,1.6c-0.3,0.5-0.7,1-1,1.5c-0.7,1-1.4,2-2.1,3c-0.4,0.5-0.7,1-1.1,1.5c-0.4,0.5-0.8,1-1.2,1.5
					c-0.8,1-1.6,1.9-2.4,2.9C389.7,36.3,387.9,38.1,385.8,39.8z"/>
			</g>
		</g>
	</g>
</g>
</svg>
