<?xml version="1.0" encoding="utf-8"?>
<!-- Generator: Adobe Illustrator 18.0.0, SVG Export Plug-In . SVG Version: 6.00 Build 0)  -->
<!DOCTYPE svg PUBLIC "-//W3C//DTD SVG 1.1//EN" "http://www.w3.org/Graphics/SVG/1.1/DTD/svg11.dtd">
<svg version="1.1" id="Calque_1" xmlns="http://www.w3.org/2000/svg" xmlns:xlink="http://www.w3.org/1999/xlink" x="0px" y="0px"
	 viewBox="0 0 167.4 167.4" enable-background="new 0 0 167.4 167.4" xml:space="preserve">
<g>
	<g>
		<g>
			
				<rect x="56.7" y="92.5" transform="matrix(-0.2895 0.9572 -0.9572 -0.2895 175.4276 60.7983)" fill="#3C3C3B" width="16.9" height="6"/>
			<path fill="#3C3C3B" d="M86.2,74.1c-0.9,2.9-3.9,4.5-6.8,3.6l-5.3-1.6L79,59.9l-5.7-1.7l-4.9,16.2l-13.4-4
				c-13.4-4.1-27.6,3.5-31.7,17s3.5,27.6,17,31.7c10.6,3.2,21.6-0.8,27.8-9.3l-6.2-1.9c-4.9,5.3-12.6,7.7-19.9,5.4
				c-10.3-3.1-16.1-14-13-24.2s14-16.1,24.2-13l24.4,7.4c6,1.8,12.4-1.6,14.2-7.6L86.2,74.1z"/>
		</g>
		<path fill="#3C3C3B" d="M116.6,53.6l-7.1-2.2l-15.8,8.5l-8.5-15.8l-4-1.2l0,0l0,0l-5.7-1.7c-1.7,5.8-7.9,9.1-13.7,7.3
			s-9.1-7.9-7.3-13.7s7.9-9.1,13.7-7.3c3.7,1.1,6.3,4,7.3,7.4l6.4,1.9c-0.5-6.8-5.1-13-12-15.1c-9-2.7-18.4,2.4-21.1,11.3
			S51,51.4,60,54.1c7.7,2.3,15.8-1.1,19.6-7.8l8.8,16.4l8,2.4l14.5-7.8l7.4,85.1l6.2,1.9L116.6,53.6z"/>
	</g>
	<g>
		<path fill="#3C3C3B" d="M59.5,163.7c-21.4-6.5-39-20.9-49.5-40.6S-2.8,80.8,3.6,59.5s20.9-39,40.6-49.5s42.3-12.8,63.7-6.3
			s39,20.9,49.5,40.6c10.5,19.7,12.8,42.3,6.3,63.7c-6.5,21.4-20.9,39-40.6,49.5S80.8,170.2,59.5,163.7z M106.2,9.3
			c-19.9-6-40.9-3.9-59.2,5.9s-31.7,26.1-37.7,46s-3.9,40.9,5.9,59.2s26.1,31.7,46,37.7c19.9,6,40.9,3.9,59.2-5.9
			c18.3-9.8,31.7-26.1,37.7-46c6-19.9,3.9-40.9-5.9-59.2S126,15.3,106.2,9.3z"/>
	</g>
</g>
</svg>
