<?xml version="1.0" encoding="utf-8"?>
<!-- Generator: Adobe Illustrator 18.0.0, SVG Export Plug-In . SVG Version: 6.00 Build 0)  -->
<!DOCTYPE svg PUBLIC "-//W3C//DTD SVG 1.1//EN" "http://www.w3.org/Graphics/SVG/1.1/DTD/svg11.dtd">
<svg version="1.1" id="Calque_1" xmlns="http://www.w3.org/2000/svg" xmlns:xlink="http://www.w3.org/1999/xlink" x="0px" y="0px"
	 viewBox="-104 379.5 796.3 82.8" enable-background="new -104 379.5 796.3 82.8" xml:space="preserve">
<g>
	<g>
		<path fill="#FFFFFF" d="M155,453.4v-53.5l-23.9,41.5h-3.8l-23.8-41.7v53.5h-6.4V388h6.6l25.5,44.7l25.5-44.7h6.6v65.2h-6.4v0.2
			L155,453.4L155,453.4z"/>
		<path fill="#FFFFFF" d="M179.6,388l21.4,35.1l21.6-35.1h7l-25.4,41.1v24.2h-6.4v-24.4l-25.2-40.8h7V388z"/>
		<path fill="#FFFFFF" d="M294.3,403.6h-18.8v49.6h-17.8v-49.6h-18.8V388h55.4L294.3,403.6L294.3,403.6z"/>
		<path fill="#FFFFFF" d="M300.9,453.4v-65.2H331c3.2,0,6.2,0.8,8.8,2.1c2.6,1.3,5.1,3,7,5.1c1.9,2.1,3.4,4.5,4.5,7.3
			c1.1,2.8,1.7,5.4,1.7,8.3c0,3.8-0.8,7.3-2.4,10.7c-1.7,3.2-3.9,6-7,8.1l14.7,24H338l-12.4-20.1h-6.8v20.1H301L300.9,453.4
			L300.9,453.4z M318.8,417.7h11.3c1.1,0,2.1-0.6,3-1.9s1.5-3,1.5-5.1c0-2.3-0.6-3.9-1.7-5.3c-1.1-1.1-2.3-1.9-3.4-1.9h-10.7V417.7
			L318.8,417.7z"/>
		<path fill="#FFFFFF" d="M357.6,453.4l24.4-65.2h14.5l24.2,65.2h-19l-3.9-12.8h-17.3l-3.9,12.8H357.6z M389.2,406.8l-6,21.8H395
			L389.2,406.8z"/>
		<path fill="#FFFFFF" d="M425.6,453.4v-65.2h17.8v65.2H425.6z"/>
		<path fill="#FFFFFF" d="M505.7,403.6h-18.8v49.6h-17.8v-49.6h-18.8V388h55.6v15.6H505.7z"/>
		<path fill="#FFFFFF" d="M558.6,437.8v15.6h-46.4v-65.2h45.6v15.6h-27.7v9.2h23.7v14.5h-23.7v10.3H558.6L558.6,437.8z"/>
		<path fill="#FFFFFF" d="M595.5,438c2.1,0,3.9-0.4,5.3-1.3c1.5-0.9,2.6-2.1,3.6-3.6c0.9-1.5,1.5-3.2,2.1-5.3
			c0.4-1.9,0.6-3.9,0.6-6.2V388h17.8v33.6c0,4.5-0.6,8.8-1.7,12.8s-3,7.3-5.4,10.3c-2.4,2.8-5.4,5.1-9.2,6.8
			c-3.8,1.7-8.1,2.4-13.1,2.4c-5.3,0-9.6-0.9-13.3-2.6c-3.7-1.7-6.8-4.1-9.2-7c-2.4-3-4.1-6.4-5.3-10.3c-1.1-3.9-1.7-8.1-1.7-12.4
			V388h17.8v33.6c0,2.1,0.2,4.1,0.6,6.2c0.4,2.1,1.1,3.8,2.1,5.3c0.9,1.5,2.1,2.6,3.6,3.6C591.5,437.6,593.4,438,595.5,438z"/>
		<path fill="#FFFFFF" d="M635.1,453.4v-65.2h30c3.2,0,6.2,0.8,8.8,2.1c2.6,1.3,5.1,3,7,5.1c1.9,2.1,3.4,4.5,4.5,7.3
			c1.1,2.8,1.7,5.4,1.7,8.3c0,3.8-0.8,7.3-2.4,10.7c-1.7,3.2-3.9,6-7,8.1l14.7,24h-20.3l-12.4-20.1h-6.6v20.1h-18V453.4z
			 M653.1,417.7h11.3c1.1,0,2.1-0.6,3-1.9c0.9-1.3,1.5-3,1.5-5.1c0-2.3-0.6-3.9-1.7-5.3c-1.1-1.1-2.3-1.9-3.4-1.9h-10.7V417.7z"/>
	</g>
	<g>
		<circle fill="#FFFFFF" cx="-33.6" cy="456.5" r="5.8"/>
		<path fill="#FFFFFF" d="M29.3,379.5l-31.5,18.1l-21.7,12.5c-1.9-3.3-5.5-5.5-9.5-5.5c-0.1,0-0.1,0-0.1,0s-0.1,0-0.1,0
			c-4,0-7.6,2.2-9.5,5.5l-21.7-12.5l-31.5-18.1c-5,18.1-7.6,21.3-7.6,36.3s2.4,18.2,7.6,36.3l31.4-18.1l21.8-12.6
			c1.9,3.4,5.5,5.5,9.6,5.5l0,0l0,0c4.1,0,7.7-2.2,9.6-5.5l21.8,12.6l31.4,18.1c5.2-18,7.6-21.3,7.6-36.3
			C36.9,400.9,34.3,397.6,29.3,379.5z"/>
	</g>
</g>
</svg>
